<?xml version="1.0" encoding="UTF-8"?>
<svg id="Layer_1" data-name="Layer 1" xmlns="http://www.w3.org/2000/svg" viewBox="0 0 28 27">
  <defs>
    <style>
      .cls-1 {
        fill: #1c1c1c;
        stroke-width: 0px;
      }
    </style>
  </defs>
  <path class="cls-1" d="M20.3322162628,14.4532814729c.5998535156,0,1.0861816406-.5894775391,1.0861816406-1.3165893555,0-.6868896484-.4389038086-1.2334594727-.9926147461-1.2937011719.0888061523.1371459961.1502075195.3023071289.1502075195.490234375,0,.4458618164-.2982177734.8073120117-.6660766602.8073120117-.2603759766,0-.4801025391-.1857910156-.5896606445-.4497680664-.042175293.1405029297-.07421875.2877197266-.07421875.4459228516,0,.7271118164.4862670898,1.3165893555,1.0861816406,1.3165893555Z"/>
  <path class="cls-1" d="M23.312379837,18.6963845002c-.2954101562-.2521972656-.9317016602-.7661132812-1.6834716797-1.2478637695,1.1360473633-.7954101562,1.8944091797-2.1751098633,1.8944091797-3.7496948242,0-2.462890625-1.84375-4.466796875-4.1103515625-4.466796875-.448059082,0-.8623657227.0960693359-1.2514648438.2431030273-.1302490234-.3796386719-.251159668-.8914794922-.2427368164-1.494140625.018737793-1.3416137695,1.6575927734-3.0997314453,2.1482543945-3.9375.5008544922-.8551025391.4907226562-1.6635742188-.1076660156-2.3338012695-.598449707-.6701660156-1.5079956055-1.256652832-2.585144043-1.4241943359-1.0770874023-.1675415039-1.9508056641.1077270508-2.4534301758,1.2805786133-.5026855469,1.1729125977-.5983886719,3.7938842773-.9694213867,4.6915283203-.3710327148.8975830078-1.2984619141.37109375-1.8909912109-.5505371094-.7360229492-1.1449584961-.9713745117-3.6423339844-1.3663330078-4.7673339844s-1.350402832-1.0478515625-2.4993286133-.6422729492-2.3936157227,1.4960327148-2.9680786133,2.1662597656c-.5744628906.6701660156-.9335327148,1.5678100586-.0957641602,2.6090087891.8377685547,1.0412597656,2.381652832,1.8909912109,2.8604125977,2.5611572266.4786987305.6702270508.7958374023,2.0904541016.3111572266,2.25-.6288452148.20703125-2.4036254883-1.1887817383-3.5305786133-1.4720458984-.8321533203-.2091674805-1.3304443359-.1795043945-1.8551025391.5505371094-.4092407227.569519043-.8736572266,1.7233886719-1.0292358398,2.7669677734-.1555786133,1.0435180664.5385742188,1.7928466797,1.4481201172,2.1279907227.7512817383.2767333984,2.0401000977.557800293,3.2418823242.6000366211-.0003051758.0250854492-.00390625.0487670898-.00390625.0739746094,0,2.0740966797,1.0000610352,3.9152832031,2.539855957,5.0845947266.1351928711,2.2094726562-.1585693359,4.4508666992-.4869384766,6.047668457.3241577148.1666870117.7254638672.3438110352,1.2200927734.5140991211.294128418-1.3503417969.641418457-3.4708251953.600402832-5.7769165039.7112426758.3073120117,1.4897460938.484375,2.3057861328.5141601562.2125244141.3778076172.6016235352.7415771484.80078125.9122924805.299987793.2564086914.754699707.5806274414,1.3479003906.854309082.0211791992,1.0434570312-.2260742188,2.9624633789-.5505981445,4.2719726562.3272705078.0140991211.6672973633.0221557617,1.022644043.0221557617,2.2910766602,0,3.890625-.4160766602,4.9609985352-.8704833984-.6193847656-1.3239135742-.9459228516-2.2733764648-1.1441650391-3.1544189453,2.1433105469-.7360839844,3.8540039062-2.757019043,4.2201538086-3.2153320312.25390625-.31640625.20703125-.78515625-.0981445312-1.0390625ZM19.4129657745,10.531833719c1.5498046875,0,2.810546875,1.4208984375,2.810546875,3.1669921875,0,1.416809082-.8355712891,2.6049194336-1.9766235352,3.0080566406-.4837036133-.2025756836-.9664306641-.3400878906-1.4052124023-.3400878906-.0955810547,0-.2005004883.0268554688-.3002319336.0383300781.1398925781-.5847167969.2172241211-1.2104492188.2172241211-1.8737792969,0-1.3521728516-.2917480469-2.5003662109-.811706543-3.4418334961.3779907227-.3378295898.8577270508-.5576782227,1.466003418-.5576782227ZM18.027589798,17.8304177034c.2930908203-.1000366211.5706176758-.1633300781.8140869141-.1633300781.5454711914,0,1.367980957.4000244141,2.1970214844.9444580078-1.361328125-.0077514648-2.6156616211.1160888672-3.7253417969.3258666992.2739257812-.3341064453.5135498047-.7035522461.7142333984-1.1069946289ZM12.9886493683,19.6260720002c-2.8203125,0-5.115234375-2.28515625-5.115234375-5.0947265625,0-2.9365234375,2.4780273438-4.9091796875,4.7924804688-4.9091796875,4.1704101562,0,4.79296875,3.0756835938,4.79296875,4.9091796875,0,3-1.8383789062,5.0947265625-4.4702148438,5.0947265625ZM17.9129657745,21.9141579377c-1.7572631836.1514282227-2.9522094727-.5802612305-3.5677490234-1.128112793,1.5841064453-.7521362305,4.2526855469-1.4064331055,7.5078125-1.248840332-.7955932617.8446044922-2.3338623047,2.2397460938-3.9400634766,2.376953125Z"/>
  <path class="cls-1" d="M11.84283638,11.8180275666c-.0255126953,0-.0493164062.0076293945-.0745239258.0090942383.1714477539.197265625.2809448242.4721679688.2809448242.7813110352,0,.5979003906-.3998413086,1.0825805664-.8931274414,1.0825805664-.3508911133,0-.6473388672-.2512207031-.7933959961-.6080932617-.0609741211.2037963867-.0997314453.4206542969-.0997314453.6499633789,0,1.0575561523.7073364258,1.9149169922,1.5798339844,1.9149169922s1.5797729492-.8573608398,1.5797729492-1.9149169922-.7072753906-1.914855957-1.5797729492-1.914855957Z"/>
</svg>